<svg id="Layer_1" data-name="Layer 1" xmlns="http://www.w3.org/2000/svg" viewBox="0 0 400 200"><defs><style>.cls-1{fill:#fff;}.cls-2{fill:#1db6f2;}.cls-3{fill:#ffa405;}</style></defs><path class="cls-1" d="M17.45,127.49V86.58l-4.33-.68a4.6,4.6,0,0,1-2.26-1A2.56,2.56,0,0,1,10,82.88V78h7.45v-1.6A23.59,23.59,0,0,1,19,67.86a18.11,18.11,0,0,1,4.58-6.8,21.63,21.63,0,0,1,7.74-4.5,33.57,33.57,0,0,1,11.06-1.63,39.85,39.85,0,0,1,4.18.22,18.88,18.88,0,0,1,3.71.7l-.39,6.24a1.38,1.38,0,0,1-1.21,1.34,15.71,15.71,0,0,1-2.79.21,32.19,32.19,0,0,0-7.91.83,13.48,13.48,0,0,0-5.16,2.46A9.12,9.12,0,0,0,29.94,71a17.72,17.72,0,0,0-.85,5.73V78h31v49.53H48V86.54H29.48v40.95Z"/><path class="cls-1" d="M98.88,127.49H88l-19.87-50h10a3.77,3.77,0,0,1,2.21.63,3.26,3.26,0,0,1,1.24,1.61l9.64,26.68A47.3,47.3,0,0,1,92.57,111c.37,1.5.7,3,1,4.48.29-1.49.62-3,1-4.48A40.7,40.7,0,0,1,96,106.45l9.88-26.68a3.33,3.33,0,0,1,1.22-1.61,3.48,3.48,0,0,1,2.1-.63h9.49Z"/><path class="cls-2" d="M144.85,76.75a24.24,24.24,0,0,1,8.7,1.51,19,19,0,0,1,6.84,4.4,20,20,0,0,1,4.48,7.11,26.91,26.91,0,0,1,1.61,9.62,17.45,17.45,0,0,1-.12,2.26,3.6,3.6,0,0,1-.45,1.42,1.73,1.73,0,0,1-.85.73,3.52,3.52,0,0,1-1.36.22H132.82q.54,7.7,4.15,11.3a12.9,12.9,0,0,0,9.54,3.6,16.65,16.65,0,0,0,5-.68,24.23,24.23,0,0,0,3.7-1.51c1.06-.55,2-1.06,2.78-1.51a4.59,4.59,0,0,1,2.31-.68,2.62,2.62,0,0,1,1.27.29,2.68,2.68,0,0,1,.92.83L166,120a19.81,19.81,0,0,1-4.49,3.92,25.08,25.08,0,0,1-5.18,2.53,27.93,27.93,0,0,1-5.5,1.34,39.43,39.43,0,0,1-5.43.39,26.57,26.57,0,0,1-9.7-1.73,21.81,21.81,0,0,1-7.79-5.11,24,24,0,0,1-5.2-8.38,32.27,32.27,0,0,1-1.91-11.56,27.74,27.74,0,0,1,1.66-9.62A23,23,0,0,1,127.25,84a22.5,22.5,0,0,1,7.54-5.29A25.07,25.07,0,0,1,144.85,76.75Zm.25,8.62q-5.26,0-8.24,3a14.77,14.77,0,0,0-3.79,8.43h22.59a15.07,15.07,0,0,0-.63-4.41,10.06,10.06,0,0,0-1.95-3.62,9.06,9.06,0,0,0-3.31-2.46A11.28,11.28,0,0,0,145.1,85.37Z"/><path class="cls-1" d="M196.91,76.75a24.24,24.24,0,0,1,8.7,1.51,19,19,0,0,1,6.84,4.4,20,20,0,0,1,4.48,7.11,26.91,26.91,0,0,1,1.61,9.62,17.45,17.45,0,0,1-.12,2.26,3.6,3.6,0,0,1-.45,1.42,1.75,1.75,0,0,1-.84.73,3.61,3.61,0,0,1-1.37.22H184.88q.54,7.7,4.15,11.3a12.9,12.9,0,0,0,9.54,3.6,16.65,16.65,0,0,0,5-.68,24.23,24.23,0,0,0,3.7-1.51c1.06-.55,2-1.06,2.78-1.51a4.59,4.59,0,0,1,2.31-.68,2.62,2.62,0,0,1,1.27.29,2.68,2.68,0,0,1,.92.83L218.1,120a19.81,19.81,0,0,1-4.49,3.92,25.08,25.08,0,0,1-5.18,2.53,27.93,27.93,0,0,1-5.5,1.34,39.43,39.43,0,0,1-5.43.39,26.48,26.48,0,0,1-9.69-1.73,21.85,21.85,0,0,1-7.8-5.11,24,24,0,0,1-5.2-8.38,32.27,32.27,0,0,1-1.91-11.56,27.74,27.74,0,0,1,1.66-9.62A23,23,0,0,1,179.31,84a22.5,22.5,0,0,1,7.54-5.29A25.07,25.07,0,0,1,196.91,76.75Zm.25,8.62q-5.26,0-8.24,3a14.77,14.77,0,0,0-3.79,8.43h22.59a15.07,15.07,0,0,0-.63-4.41,10.06,10.06,0,0,0-2-3.62,9.06,9.06,0,0,0-3.31-2.46A11.28,11.28,0,0,0,197.16,85.37Z"/><path class="cls-3" d="M242.93,63a6.78,6.78,0,0,1-.64,2.93,8,8,0,0,1-1.68,2.38,7.88,7.88,0,0,1-2.46,1.63,7.48,7.48,0,0,1-3,.61,7.17,7.17,0,0,1-2.94-.61,7.76,7.76,0,0,1-4-4,7.06,7.06,0,0,1-.61-2.93,7.77,7.77,0,0,1,2.24-5.45,7.77,7.77,0,0,1,2.41-1.63,7.17,7.17,0,0,1,2.94-.61,7.48,7.48,0,0,1,3,.61,7.88,7.88,0,0,1,2.46,1.63A7.69,7.69,0,0,1,242.29,60,7.14,7.14,0,0,1,242.93,63Z"/><rect class="cls-2" x="229.09" y="77.53" width="12.03" height="49.96"/><path class="cls-2" d="M272,76.65a27.15,27.15,0,0,1,6,.65,20.72,20.72,0,0,1,5.16,1.93h14.37v4.48a2.47,2.47,0,0,1-.59,1.75,3.36,3.36,0,0,1-2,.88l-4.48.83a15.22,15.22,0,0,1,.75,2.67,16,16,0,0,1,.27,3A14.75,14.75,0,0,1,286,104.6a18.93,18.93,0,0,1-6.18,3.24A25.51,25.51,0,0,1,272,109a27.73,27.73,0,0,1-5.5-.54c-1.56,1-2.34,2-2.34,3.19a2.34,2.34,0,0,0,1.39,2.23,11.42,11.42,0,0,0,3.65,1,41.42,41.42,0,0,0,5.14.29c1.92,0,3.87.08,5.89.24a46.92,46.92,0,0,1,5.89.86,17.3,17.3,0,0,1,5.14,1.93,10.29,10.29,0,0,1,3.65,3.59,11,11,0,0,1,1.39,5.84,13.9,13.9,0,0,1-1.63,6.45,17.32,17.32,0,0,1-4.73,5.57,24.74,24.74,0,0,1-7.56,3.93,32.21,32.21,0,0,1-10.23,1.49,39,39,0,0,1-9.89-1.1,23,23,0,0,1-6.94-2.92,12.45,12.45,0,0,1-4.11-4.21,9.87,9.87,0,0,1-1.36-5A8.49,8.49,0,0,1,252,126a14.56,14.56,0,0,1,5.94-3.8,8.14,8.14,0,0,1-3-2.73,7.81,7.81,0,0,1-1.13-4.43,7.44,7.44,0,0,1,.4-2.31,9.19,9.19,0,0,1,1.19-2.36,11.88,11.88,0,0,1,2-2.22,13.63,13.63,0,0,1,2.88-1.87,15.69,15.69,0,0,1-6-5.46,14.5,14.5,0,0,1-2.17-8,14.76,14.76,0,0,1,1.49-6.7A15.12,15.12,0,0,1,257.8,81a18.83,18.83,0,0,1,6.29-3.24A26.62,26.62,0,0,1,272,76.65Zm13.2,52.94a3.5,3.5,0,0,0-.87-2.44,5.84,5.84,0,0,0-2.39-1.46,17.73,17.73,0,0,0-3.54-.78,36.19,36.19,0,0,0-4.28-.24h-4.67a19.82,19.82,0,0,1-4.66-.54,11,11,0,0,0-3.29,2.66,5.47,5.47,0,0,0-1.24,3.53,4.82,4.82,0,0,0,.66,2.45,5.45,5.45,0,0,0,2.1,2,12.38,12.38,0,0,0,3.72,1.29,29.59,29.59,0,0,0,5.6.46,28.49,28.49,0,0,0,5.79-.52,13.8,13.8,0,0,0,4-1.44,6.24,6.24,0,0,0,2.32-2.19A5.53,5.53,0,0,0,285.2,129.59ZM272,101.29a11.25,11.25,0,0,0,3.9-.61A7.51,7.51,0,0,0,278.65,99a7,7,0,0,0,1.66-2.58,9.54,9.54,0,0,0,.55-3.31,7.86,7.86,0,0,0-2.21-5.87c-1.48-1.44-3.69-2.17-6.65-2.17s-5.17.73-6.65,2.17a7.83,7.83,0,0,0-2.21,5.87,9.11,9.11,0,0,0,.56,3.26A7.09,7.09,0,0,0,265.35,99a7.46,7.46,0,0,0,2.78,1.7A11.23,11.23,0,0,0,272,101.29Z"/><path class="cls-2" d="M305.12,127.49V55.12h12V82.93a25.39,25.39,0,0,1,6.43-4.48,18.54,18.54,0,0,1,8.22-1.7,18,18,0,0,1,7.26,1.38,14.39,14.39,0,0,1,5.28,3.9,17.32,17.32,0,0,1,3.22,6,25.47,25.47,0,0,1,1.1,7.67v31.8h-12V95.69q0-4.57-2.11-7.09c-1.41-1.67-3.54-2.5-6.36-2.5a12.5,12.5,0,0,0-5.84,1.41,20.85,20.85,0,0,0-5.16,3.84v36.14Z"/><path class="cls-2" d="M376.91,128.27q-6.48,0-10-3.68t-3.51-10.15V86.54h-5.06a2.45,2.45,0,0,1-1.68-.64A2.38,2.38,0,0,1,356,84V79.23l8-1.31,2.54-13.64a2.39,2.39,0,0,1,.9-1.51,2.86,2.86,0,0,1,1.78-.54h6.23V78h13.15v8.58H375.44v27.07a5.33,5.33,0,0,0,1.17,3.66,4,4,0,0,0,3.12,1.31,5.6,5.6,0,0,0,1.87-.27,9.19,9.19,0,0,0,1.31-.56c.38-.19.71-.38,1-.56a1.7,1.7,0,0,1,.88-.27,1.33,1.33,0,0,1,.87.27,4.21,4.21,0,0,1,.74.8l3.6,5.85a18.28,18.28,0,0,1-6,3.31A22.32,22.32,0,0,1,376.91,128.27Z"/></svg>