<svg id="Layer_1" data-name="Layer 1" xmlns="http://www.w3.org/2000/svg" viewBox="0 0 400 200"><defs><style>.cls-1{fill:#001d48;}.cls-2{fill:#1db6f2;}.cls-3{fill:#ffa405;}</style></defs><path class="cls-1" d="M29.09,76.74A17.7,17.7,0,0,1,29.94,71a9.12,9.12,0,0,1,2.83-4.09,13.48,13.48,0,0,1,5.16-2.46,32.19,32.19,0,0,1,7.91-.83,15.71,15.71,0,0,0,2.79-.21,1.38,1.38,0,0,0,1.21-1.34l.39-6.24a20.41,20.41,0,0,0-3.71-.71c-1.42-.14-2.82-.21-4.18-.21a33.57,33.57,0,0,0-11.06,1.63,21.5,21.5,0,0,0-7.74,4.51A18,18,0,0,0,19,67.86a23.55,23.55,0,0,0-1.51,8.5V78H10v4.92a2.52,2.52,0,0,0,.86,2,4.44,4.44,0,0,0,2.26,1l4.33.68v40.91h12v-41H48v41h12V78h-31Z"/><path class="cls-1" d="M107.11,78.15a3.38,3.38,0,0,0-1.22,1.61L96,106.45A40.7,40.7,0,0,0,94.57,111c-.38,1.49-.71,3-1,4.48-.3-1.5-.63-3-1-4.48a47.3,47.3,0,0,0-1.39-4.58L81.54,79.76a3.3,3.3,0,0,0-1.24-1.61,3.76,3.76,0,0,0-2.21-.62h-10l19.87,50H98.88l19.82-50h-9.49A3.48,3.48,0,0,0,107.11,78.15Z"/><path class="cls-2" d="M160.39,82.66a19,19,0,0,0-6.84-4.4,24.24,24.24,0,0,0-8.7-1.52,24.9,24.9,0,0,0-10.06,2A22.36,22.36,0,0,0,127.25,84a23.09,23.09,0,0,0-4.75,7.84,27.73,27.73,0,0,0-1.66,9.61A32.29,32.29,0,0,0,122.75,113a23.93,23.93,0,0,0,5.2,8.38,21.68,21.68,0,0,0,7.79,5.11,26.57,26.57,0,0,0,9.7,1.73,39.43,39.43,0,0,0,5.43-.39,28.65,28.65,0,0,0,5.5-1.34,24.58,24.58,0,0,0,5.18-2.53A19.81,19.81,0,0,0,166,120l-3.51-4.39a2.76,2.76,0,0,0-.92-.82,2.62,2.62,0,0,0-1.27-.29,4.69,4.69,0,0,0-2.31.68c-.8.45-1.72,1-2.78,1.5a22.34,22.34,0,0,1-3.7,1.52,16.65,16.65,0,0,1-5,.68,12.86,12.86,0,0,1-9.54-3.61q-3.61-3.6-4.15-11.29H163.7a3.52,3.52,0,0,0,1.36-.22,1.73,1.73,0,0,0,.85-.73,3.6,3.6,0,0,0,.45-1.41,17.84,17.84,0,0,0,.12-2.27,26.91,26.91,0,0,0-1.61-9.62A20,20,0,0,0,160.39,82.66Zm-27.32,14.1a14.74,14.74,0,0,1,3.79-8.43q3-3,8.24-3a11.44,11.44,0,0,1,4.67.89,9.2,9.2,0,0,1,3.31,2.47A10.06,10.06,0,0,1,155,92.35a15.07,15.07,0,0,1,.63,4.41Z"/><path class="cls-1" d="M212.45,82.66a19,19,0,0,0-6.84-4.4,24.24,24.24,0,0,0-8.7-1.52,24.9,24.9,0,0,0-10.06,2A22.36,22.36,0,0,0,179.31,84a23.09,23.09,0,0,0-4.75,7.84,27.73,27.73,0,0,0-1.66,9.61A32.29,32.29,0,0,0,174.81,113a23.93,23.93,0,0,0,5.2,8.38,21.72,21.72,0,0,0,7.8,5.11,26.48,26.48,0,0,0,9.69,1.73,39.43,39.43,0,0,0,5.43-.39,28.65,28.65,0,0,0,5.5-1.34,24.58,24.58,0,0,0,5.18-2.53A19.81,19.81,0,0,0,218.1,120l-3.51-4.39a2.76,2.76,0,0,0-.92-.82,2.62,2.62,0,0,0-1.27-.29,4.69,4.69,0,0,0-2.31.68c-.8.45-1.72,1-2.78,1.5a22.34,22.34,0,0,1-3.7,1.52,16.65,16.65,0,0,1-5,.68,12.86,12.86,0,0,1-9.54-3.61q-3.61-3.6-4.15-11.29h30.88a3.61,3.61,0,0,0,1.37-.22,1.75,1.75,0,0,0,.84-.73,3.6,3.6,0,0,0,.45-1.41,17.84,17.84,0,0,0,.12-2.27,26.91,26.91,0,0,0-1.61-9.62A20,20,0,0,0,212.45,82.66Zm-27.32,14.1a14.74,14.74,0,0,1,3.79-8.43q3-3,8.24-3a11.44,11.44,0,0,1,4.67.89,9.2,9.2,0,0,1,3.31,2.47,10.06,10.06,0,0,1,2,3.62,15.07,15.07,0,0,1,.63,4.41Z"/><rect class="cls-2" x="229.09" y="77.53" width="12.03" height="49.96"/><path class="cls-3" d="M240.61,57.51a8.09,8.09,0,0,0-2.46-1.64,7.64,7.64,0,0,0-3-.6,7.33,7.33,0,0,0-2.94.6,8,8,0,0,0-2.41,1.64A7.77,7.77,0,0,0,227.54,63a7,7,0,0,0,.61,2.92,7.51,7.51,0,0,0,1.63,2.39,7.77,7.77,0,0,0,2.41,1.63,7.17,7.17,0,0,0,2.94.61,7.48,7.48,0,0,0,3-.61,7.92,7.92,0,0,0,4.14-4,6.7,6.7,0,0,0,.64-2.92,7.1,7.1,0,0,0-.64-3A7.69,7.69,0,0,0,240.61,57.51Z"/><path class="cls-2" d="M278,77.31a28.26,28.26,0,0,0-14,.46A18.83,18.83,0,0,0,257.8,81a15,15,0,0,0-4.13,5.11,14.76,14.76,0,0,0-1.49,6.7,14.5,14.5,0,0,0,2.17,8,15.59,15.59,0,0,0,6,5.45,14.05,14.05,0,0,0-2.88,1.88,11.88,11.88,0,0,0-2,2.22,9,9,0,0,0-1.19,2.36,7.49,7.49,0,0,0-.4,2.31,7.81,7.81,0,0,0,1.13,4.43,8.25,8.25,0,0,0,3,2.74A14.44,14.44,0,0,0,252,126a8.48,8.48,0,0,0-2.14,5.89,9.87,9.87,0,0,0,1.36,5,12.36,12.36,0,0,0,4.11,4.21,23,23,0,0,0,6.94,2.93,40,40,0,0,0,9.89,1.09,32.21,32.21,0,0,0,10.23-1.49,24.74,24.74,0,0,0,7.56-3.93,17.32,17.32,0,0,0,4.73-5.57,13.9,13.9,0,0,0,1.63-6.45,11,11,0,0,0-1.39-5.84,10.29,10.29,0,0,0-3.65-3.59,17.3,17.3,0,0,0-5.14-1.93,45.15,45.15,0,0,0-5.89-.85c-2-.17-4-.25-5.89-.25a41.42,41.42,0,0,1-5.14-.29,11.17,11.17,0,0,1-3.65-1,2.34,2.34,0,0,1-1.39-2.23c0-1.18.78-2.24,2.34-3.19a27.73,27.73,0,0,0,5.5.54,25.51,25.51,0,0,0,7.77-1.15,19.11,19.11,0,0,0,6.18-3.23A15.07,15.07,0,0,0,290,99.52a14.92,14.92,0,0,0,1.49-6.7,15.77,15.77,0,0,0-.27-3,15.09,15.09,0,0,0-.75-2.68l4.48-.83a3.42,3.42,0,0,0,2-.88,2.47,2.47,0,0,0,.59-1.75V79.23H283.2A20,20,0,0,0,278,77.31Zm-13.25,46.82a20.36,20.36,0,0,0,4.66.54h4.67a36.19,36.19,0,0,1,4.28.24,17.73,17.73,0,0,1,3.54.78,5.75,5.75,0,0,1,2.39,1.47,3.46,3.46,0,0,1,.87,2.43,5.53,5.53,0,0,1-.73,2.76,6.08,6.08,0,0,1-2.32,2.19,13.8,13.8,0,0,1-4,1.44,27.8,27.8,0,0,1-5.79.52,29.59,29.59,0,0,1-5.6-.46,12.38,12.38,0,0,1-3.72-1.29,5.58,5.58,0,0,1-2.1-2,4.88,4.88,0,0,1-.66-2.46,5.54,5.54,0,0,1,1.24-3.54A11.17,11.17,0,0,1,264.79,124.13Zm15.52-27.71A7,7,0,0,1,278.65,99a7.64,7.64,0,0,1-2.75,1.68,12.68,12.68,0,0,1-7.77,0,7.46,7.46,0,0,1-2.78-1.7,7.09,7.09,0,0,1-1.65-2.61,9.15,9.15,0,0,1-.56-3.26,7.83,7.83,0,0,1,2.21-5.87c1.48-1.44,3.69-2.17,6.65-2.17s5.17.73,6.65,2.17a7.86,7.86,0,0,1,2.21,5.87A9.54,9.54,0,0,1,280.31,96.42Z"/><path class="cls-2" d="M344.34,82a14.39,14.39,0,0,0-5.28-3.9,18,18,0,0,0-7.26-1.39,18.54,18.54,0,0,0-8.22,1.71,25.39,25.39,0,0,0-6.43,4.48V55.12h-12v72.37h12V91.35a21.1,21.1,0,0,1,5.16-3.84,12.38,12.38,0,0,1,5.84-1.41c2.82,0,5,.83,6.36,2.5s2.11,4,2.11,7.09v31.8h12V95.69a25.47,25.47,0,0,0-1.1-7.67A17.32,17.32,0,0,0,344.34,82Z"/><path class="cls-2" d="M386.4,118a4.21,4.21,0,0,0-.74-.8,1.33,1.33,0,0,0-.87-.27,1.7,1.7,0,0,0-.88.27c-.29.18-.62.37-1,.56a8.17,8.17,0,0,1-1.31.56,5.6,5.6,0,0,1-1.87.27,4,4,0,0,1-3.12-1.32,5.3,5.3,0,0,1-1.17-3.65V86.53h13.15V78H375.44V62.23h-6.23a2.86,2.86,0,0,0-1.78.54,2.42,2.42,0,0,0-.9,1.51L364,77.92l-8,1.31V84a2.31,2.31,0,0,0,2.39,2.53h5.06v27.91q0,6.47,3.51,10.16t10,3.67a22.61,22.61,0,0,0,7-1.12,18.13,18.13,0,0,0,6-3.32Z"/></svg>